<?xml version="1.0" encoding="UTF-8"?>
<svg width="52px" height="44px" viewBox="0 0 52 44" version="1.1" xmlns="http://www.w3.org/2000/svg" xmlns:xlink="http://www.w3.org/1999/xlink">
    <!-- Generator: Sketch 52.6 (67491) - http://www.bohemiancoding.com/sketch -->
    <title>np_heart_17448_FE3247</title>
    <desc>Created with Sketch.</desc>
    <g id="Pages" stroke="none" stroke-width="1" fill="none" fillRule="evenodd">
        <g id="Homepage-v2" transform="translate(-1300.000000, -1345.000000)" fill="#fff" fill-rule="nonzero">
            <g id="Group-16" transform="translate(373.000000, 1340.000000)">
                <g id="np_heart_17448_FE3247" transform="translate(927.000000, 5.000000)">
                    <path d="M36.7209869,4.47109741e-16 C31.3545654,4.47109741e-16 27.9662319,2.52878366 26.000104,4.81573356 C24.0338721,2.52878366 20.6456426,0 15.2771411,0 C6.13862455,0 0,8.19586868 0,15.8490713 C0,26.9928551 22.1104884,41.9257369 24.6309385,43.5909868 C25.0432846,43.8623501 25.5226381,44 26,44 C26.4793795,44 26.9566998,43.8643184 27.3690615,43.5909868 C29.8898756,41.9254349 52,26.9923517 52,15.8490713 C52,8.19586868 45.8592954,4.47109741e-15 36.7207789,4.47109741e-15 L36.7209869,4.47109741e-16 Z M25.998024,38.783509 C17.2921492,32.7880053 4.85889944,22.0590237 4.85889944,15.8490713 C4.85889944,11.1769076 8.48060992,4.70327382 15.2771411,4.70327382 C21.4604858,4.70327382 23.6439746,9.8732002 23.7292549,10.0775809 C24.0847231,10.9860684 24.9825639,11.5799303 25.9859599,11.5877834 L26.00221,11.5877834 C26.999574,11.5877834 27.8973576,10.9899949 28.2650511,10.093287 C28.354429,9.87304918 30.5380322,4.7033745 36.7213249,4.7033745 C43.5198321,4.7033745 47.1416466,11.1766056 47.1416466,15.849172 C47.1416466,22.05107 34.7063168,32.7840788 25.998362,38.7836097 L25.998024,38.783509 Z" id="Shape"></path>
                </g>
            </g>
        </g>
    </g>
</svg>