<?xml version="1.0" encoding="UTF-8"?> <svg xmlns="http://www.w3.org/2000/svg" width="366" height="63" viewBox="0 0 366 63"><g fill="none" fill-rule="evenodd" transform="translate(0 -21)"><g transform="translate(0 21)"><path fill="#6747C7" d="M11,27 C11,29.2091569 12.6392376,31 14.6613126,31 L17.3386236,31 C19.3607624,31 21,29.2091569 21,27 C21,24.7908431 19.3607624,23 17.3386236,23 L14.6613126,23 C12.6392376,23 11,24.7908431 11,27"></path><path fill="#F9F9F9" d="M4.44927458,23 L3.55066359,23 C1.589698,23 0,24.7908431 0,27 C0,29.2091569 1.589698,31 3.55066359,31 L4.44927458,31 C6.410302,31 8,29.2091569 8,27 C8,24.7908431 6.410302,23 4.44927458,23"></path><path fill="#FF4547" d="M24,27 C24,29.2091569 25.6558785,31 27.6985451,31 L37.3015193,31 C39.3441215,31 41,29.2091569 41,27 C41,24.7908431 39.3441215,23 37.3015193,23 L27.6985451,23 C25.6558785,23 24,24.7908431 24,27"></path><path fill="#6747C7" d="M14,38.9999652 L14,39.0000348 C14,41.2091413 12.3907067,43 10.4055069,43 L3.59443048,43 C1.60929326,43 0,41.2091413 0,39.0000348 L0,38.9999652 C0,36.7908587 1.60929326,35 3.59443048,35 L10.4055069,35 C12.3907067,35 14,36.7908587 14,38.9999652"></path><path fill="#FF4547" d="M20.550698 35L21.449302 35C23.4102524 35 25 36.7908587 25 38.9999652L25 39.0000348C25 41.2091413 23.4102524 43 21.449302 43L20.550698 43C18.5896857 43 17 41.2091413 17 39.0000348L17 38.9999652C17 36.7908587 18.5896857 35 20.550698 35M38.5864587 46L40.4135413 46C42.3942759 46 44 47.7906871 44 49.9995821L44 50.0003483C44 52.2093129 42.3942759 54 40.4135413 54L38.5864587 54C36.6057241 54 35 52.2093129 35 50.0003483L35 49.9995821C35 47.7906871 36.6057241 46 38.5864587 46"></path><path fill="#EAECF1" d="M21.3140725,11 L3.68586328,11 C1.65022942,11 0,12.7908431 0,15 C0,17.2091569 1.65022942,19 3.68586328,19 L21.3140725,19 C23.3497064,19 25,17.2091569 25,15 C25,12.7908431 23.3497064,11 21.3140725,11"></path><path fill="#6760FC" d="M9.46070362,0 L3.53923474,0 C1.5845811,0 0,1.79074121 0,3.9996169 L0,4.0003831 C0,6.20932845 1.5845811,8 3.53923474,8 L9.46070362,8 C11.4154189,8 13,6.20932845 13,4.0003831 L13,3.9996169 C13,1.79074121 11.4154189,0 9.46070362,0"></path><path fill="#F4FAFF" d="M16,3.9996169 L16,4.0003831 C16,6.20932845 17.6622377,8 19.7126047,8 L38.28746,8 C40.3378269,8 42,6.20932845 42,4.0003831 L42,3.9996169 C42,1.79074121 40.3378269,0 38.28746,0 L19.7126047,0 C17.6622377,0 16,1.79074121 16,3.9996169"></path><path fill="#DDE7E7" d="M12.2509548,46 L3.74871879,46 C1.67834177,46 0,47.7906716 0,49.9996169 L0,50.0003831 C0,52.2093284 1.67834177,54 3.74871879,54 L12.2509548,54 C14.3214624,54 16,52.2091195 16,50.0000348 L16,49.9999652 C16,47.7908805 14.3214624,46 12.2509548,46"></path><path fill="#6747C7" d="M28.4261017,46 L22.5742095,46 C20.6002595,46 19,47.7908805 19,49.9999652 L19,50.0000348 C19,52.2091195 20.6002595,54 22.5742095,54 L28.4261017,54 C30.3999272,54 32,52.2093284 32,50.0003831 L32,49.9996169 C32,47.7906716 30.3999272,46 28.4261017,46"></path></g><path fill="#E5E1EE" d="M76.565 30.54C72.5683133 30.54 70.57 31.8599868 70.57 34.5 70.57 35.6733392 71.064995 36.5716636 72.055 37.195 73.045005 37.8183365 75.3641484 38.7166608 79.0125 39.89 82.6608516 41.0633392 85.218326 42.3924926 86.685 43.8775 88.151674 45.3625074 88.885 47.6449846 88.885 50.725 88.885 54.648353 87.6933452 57.6183233 85.31 59.635 82.9266547 61.6516768 79.8100192 62.66 75.96 62.66 73.0999857 62.66 69.598354 62.2200044 65.455 61.34L63.475 60.955 64.245 55.07C69.1583579 55.7300033 72.9166537 56.06 75.52 56.06 79.4066861 56.06 81.35 54.4466828 81.35 51.22 81.35 50.0466608 80.9008378 49.1300033 80.0025 48.47 79.1041622 47.8099967 77.3166801 47.0950039 74.64 46.325 70.3866454 45.1149939 67.3891754 43.6758417 65.6475 42.0075 63.9058246 40.3391583 63.035 38.0200148 63.035 35.05 63.035 31.3099813 64.1716553 28.5233425 66.445 26.69 68.7183447 24.8566575 71.8349802 23.94 75.795 23.94 78.5083469 23.94 81.9549791 24.306663 86.135 25.04L88.115 25.425 87.51 31.42C82.3399742 30.8333304 78.6916773 30.54 76.565 30.54zM110.354516 40.77L103.589516 40.77 103.589516 52.045C103.589516 53.1450055 103.617016 53.9241644 103.672016 54.3825 103.727016 54.8408356 103.928681 55.2349983 104.277016 55.565 104.625351 55.8950016 105.166179 56.06 105.899516 56.06L110.079516 55.95 110.409516 61.835C107.952837 62.3850027 106.082856 62.66 104.799516 62.66 101.4995 62.66 99.2445221 61.9175074 98.034516 60.4325 96.82451 58.9474926 96.219516 56.2066867 96.219516 52.21L96.219516 40.77 92.974516 40.77 92.974516 34.5 96.219516 34.5 96.219516 26.855 103.589516 26.855 103.589516 34.5 110.354516 34.5 110.354516 40.77zM122.254032 51.385C122.290699 53.0716751 122.739861 54.2908296 123.601532 55.0425 124.463203 55.7941704 125.700691 56.17 127.314032 56.17 130.724049 56.17 133.767352 56.0600011 136.444032 55.84L137.984032 55.675 138.094032 61.12C133.877344 62.1466718 130.064049 62.66 126.654032 62.66 122.510678 62.66 119.504041 61.560011 117.634032 59.36 115.764023 57.159989 114.829032 53.5850248 114.829032 48.635 114.829032 38.7716173 118.880658 33.84 126.984032 33.84 134.977405 33.84 138.974032 37.9832919 138.974032 46.27L138.424032 51.385 122.254032 51.385zM131.714032 45.775C131.714032 43.574989 131.365702 42.044171 130.669032 41.1825 129.972362 40.320829 128.753207 39.89 127.011532 39.89 125.269857 39.89 124.041536 40.3391622 123.326532 41.2375 122.611528 42.1358378 122.235699 43.6483227 122.199032 45.775L131.714032 45.775zM142.403548 34.5L150.103548 34.5 154.503548 55.73 156.043548 55.73 160.663548 34.5 168.143548 34.5 161.543548 62 149.003548 62 142.403548 34.5zM179.108064 51.385C179.144731 53.0716751 179.593893 54.2908296 180.455564 55.0425 181.317235 55.7941704 182.554723 56.17 184.168064 56.17 187.578081 56.17 190.621384 56.0600011 193.298064 55.84L194.838064 55.675 194.948064 61.12C190.731376 62.1466718 186.918081 62.66 183.508064 62.66 179.36471 62.66 176.358073 61.560011 174.488064 59.36 172.618055 57.159989 171.683064 53.5850248 171.683064 48.635 171.683064 38.7716173 175.73469 33.84 183.838064 33.84 191.831437 33.84 195.828064 37.9832919 195.828064 46.27L195.278064 51.385 179.108064 51.385zM188.568064 45.775C188.568064 43.574989 188.219734 42.044171 187.523064 41.1825 186.826394 40.320829 185.607239 39.89 183.865564 39.89 182.123889 39.89 180.895568 40.3391622 180.180564 41.2375 179.46556 42.1358378 179.089731 43.6483227 179.053064 45.775L188.568064 45.775zM215.997096 62L215.997096 24.6 239.867096 24.6 239.867096 31.2 223.587096 31.2 223.587096 42.2 236.897096 42.2 236.897096 48.8 223.587096 48.8 223.587096 62 215.997096 62zM261.116612 34.5L268.486612 34.5 268.486612 62 261.171612 62 261.171612 60.46C258.531599 61.926674 256.239955 62.66 254.296612 62.66 250.48326 62.66 247.916619 61.6058439 246.596612 59.4975 245.276605 57.3891561 244.616612 53.8600248 244.616612 48.91L244.616612 34.5 251.986612 34.5 251.986612 49.02C251.986612 51.7333469 252.20661 53.5849951 252.646612 54.575 253.086614 55.565005 254.149937 56.06 255.836612 56.06 257.449953 56.06 258.971605 55.8033359 260.401612 55.29L261.116612 55.07 261.116612 34.5zM276.371128 62L276.371128 34.5 283.686128 34.5 283.686128 37.415C286.766143 35.5816575 289.699447 34.3900028 292.486128 33.84L292.486128 41.265C289.516113 41.8883365 286.967805 42.5299967 284.841128 43.19L283.741128 43.575 283.741128 62 276.371128 62zM298.225644 62L298.225644 23.5 305.595644 23.5 305.595644 62 298.225644 62zM319.86016 51.385C319.896827 53.0716751 320.345989 54.2908296 321.20766 55.0425 322.069331 55.7941704 323.306819 56.17 324.92016 56.17 328.330177 56.17 331.37348 56.0600011 334.05016 55.84L335.59016 55.675 335.70016 61.12C331.483472 62.1466718 327.670177 62.66 324.26016 62.66 320.116806 62.66 317.110169 61.560011 315.24016 59.36 313.370151 57.159989 312.43516 53.5850248 312.43516 48.635 312.43516 38.7716173 316.486786 33.84 324.59016 33.84 332.583533 33.84 336.58016 37.9832919 336.58016 46.27L336.03016 51.385 319.86016 51.385zM329.32016 45.775C329.32016 43.574989 328.97183 42.044171 328.27516 41.1825 327.57849 40.320829 326.359335 39.89 324.61766 39.89 322.875985 39.89 321.647664 40.3391622 320.93266 41.2375 320.217656 42.1358378 319.841827 43.6483227 319.80516 45.775L329.32016 45.775zM339.954676 34.5L347.214676 34.5 352.219676 55.73 353.484676 55.73 358.489676 34.5 365.749676 34.5 356.069676 73.55 348.864676 73.55 351.889676 62 346.719676 62 339.954676 34.5zM65.258 83L65.258 71.44 72.636 71.44 72.636 73.48 67.604 73.48 67.604 76.88 71.718 76.88 71.718 78.92 67.604 78.92 67.604 83 65.258 83zM82.2010002 79.124L82.2010002 83 79.8550002 83 79.8550002 71.44 84.3430002 71.44C87.0630138 71.44 88.4230002 72.7093206 88.4230002 75.248 88.4230002 76.7553409 87.8563392 77.8659964 86.7230002 78.58L88.3720002 83 85.8050002 83 84.4620002 79.124 82.2010002 79.124zM84.3770002 77.118C84.9323363 77.118 85.3459988 76.9480017 85.6180002 76.608 85.8900015 76.2679983 86.0260002 75.8203361 86.0260002 75.265 86.0260002 74.7096639 85.8815016 74.2676683 85.5925002 73.939 85.3034987 73.6103317 84.8870029 73.446 84.3430002 73.446L82.2010002 73.446 82.2010002 77.118 84.3770002 77.118zM95.9650003 83L95.9650003 71.44 103.445 71.44 103.445 73.48 98.3110003 73.48 98.3110003 76.183 102.425 76.183 102.425 78.189 98.3110003 78.189 98.3110003 80.96 103.445 80.96 103.445 83 95.9650003 83zM110.953001 83L110.953001 71.44 118.433001 71.44 118.433001 73.48 113.299001 73.48 113.299001 76.183 117.413001 76.183 117.413001 78.189 113.299001 78.189 113.299001 80.96 118.433001 80.96 118.433001 83 110.953001 83zM132.520001 83L125.941001 83 125.941001 71.44 128.287001 71.44 128.287001 80.926 132.520001 80.926 132.520001 83zM138.566001 83L141.167001 71.44 145.621001 71.44 148.222001 83 145.876001 83 145.417001 80.909 141.371001 80.909 140.912001 83 138.566001 83zM142.986001 73.378L141.813001 78.869 144.975001 78.869 143.802001 73.378 142.986001 73.378zM155.339001 83L155.339001 71.44 159.300001 71.44 162.088001 80.96 162.258001 80.96 162.258001 71.44 164.604001 71.44 164.604001 83 160.745001 83 157.855001 73.48 157.685001 73.48 157.685001 83 155.339001 83zM180.017001 82.813C178.815662 83.073668 177.733339 83.204 176.770001 83.204 175.806663 83.204 175.036004 83.0850012 174.458001 82.847 173.879998 82.6089988 173.42667 82.2293359 173.098001 81.708 172.769333 81.1866641 172.542668 80.5746702 172.418001 79.872 172.293334 79.1693298 172.231001 78.2853387 172.231001 77.22 172.231001 74.9873222 172.545498 73.4318377 173.174501 72.5535 173.803504 71.6751623 174.962326 71.236 176.651001 71.236 177.625673 71.236 178.753328 71.3889985 180.034001 71.695L179.966001 73.565C178.843996 73.3949991 177.911838 73.31 177.169501 73.31 176.427164 73.31 175.897336 73.4091657 175.580001 73.6075 175.262666 73.8058343 175.027502 74.1826639 174.874501 74.738 174.7215 75.2933361 174.645001 76.23966 174.645001 77.577 174.645001 78.91434 174.800833 79.8408308 175.112501 80.3565 175.424169 80.8721692 176.047497 81.13 176.982501 81.13 177.917506 81.13 178.911996 81.0506675 179.966001 80.892L180.017001 82.813zM187.491001 83L187.491001 71.44 194.971001 71.44 194.971001 73.48 189.837001 73.48 189.837001 76.183 193.951001 76.183 193.951001 78.189 189.837001 78.189 189.837001 80.96 194.971001 80.96 194.971001 83 187.491001 83zM215.682002 83L211.789002 83 211.789002 71.44 215.682002 71.44C216.67934 71.44 217.500998 71.5448323 218.147002 71.7545 218.793005 71.9641677 219.2945 72.3098309 219.651502 72.7915 220.008504 73.2731691 220.255001 73.8398301 220.391002 74.4915 220.527002 75.1431699 220.595002 75.9903281 220.595002 77.033 220.595002 78.0756719 220.532669 78.9398299 220.408002 79.6255 220.283334 80.3111701 220.04817 80.923164 219.702502 81.4615 219.356833 81.999836 218.855338 82.3908321 218.198002 82.6345 217.540665 82.8781679 216.702007 83 215.682002 83zM218.147002 78.41C218.169668 78.0473315 218.181002 77.5458365 218.181002 76.9055 218.181002 76.2651635 218.158335 75.7523353 218.113002 75.367 218.067668 74.9816647 217.960003 74.6303349 217.790002 74.313 217.620001 73.9956651 217.367837 73.7775006 217.033502 73.6585 216.699167 73.5394994 216.248671 73.48 215.682002 73.48L214.135002 73.48 214.135002 80.96 215.682002 80.96C216.532006 80.96 217.149666 80.7446688 217.535002 80.314 217.86367 79.9626649 218.067668 79.3280046 218.147002 78.41zM228.205002 83L228.205002 71.44 235.685002 71.44 235.685002 73.48 230.551002 73.48 230.551002 76.183 234.665002 76.183 234.665002 78.189 230.551002 78.189 230.551002 80.96 235.685002 80.96 235.685002 83 228.205002 83zM249.449002 71.44L251.914002 71.44 249.228002 83 244.893002 83 242.207002 71.44 244.672002 71.44 246.678002 80.96 247.443002 80.96 249.449002 71.44zM259.014002 83L259.014002 71.44 266.494002 71.44 266.494002 73.48 261.360002 73.48 261.360002 76.183 265.474002 76.183 265.474002 78.189 261.360002 78.189 261.360002 80.96 266.494002 80.96 266.494002 83 259.014002 83zM280.581002 83L274.002002 83 274.002002 71.44 276.348002 71.44 276.348002 80.926 280.581002 80.926 280.581002 83zM289.891003 80.28C290.231004 80.8693363 290.859998 81.164 291.778003 81.164 292.696007 81.164 293.322168 80.866503 293.656503 80.2715 293.990838 79.676497 294.158003 78.6791737 294.158003 77.2795 294.158003 75.8798263 293.988004 74.8626698 293.648003 74.228 293.308001 73.5933302 292.684674 73.276 291.778003 73.276 290.871331 73.276 290.248004 73.5933302 289.908003 74.228 289.568001 74.8626698 289.398003 75.8798263 289.398003 77.2795 289.398003 78.6791737 289.562334 79.6793303 289.891003 80.28zM295.484003 81.776C294.769999 82.7280048 293.534678 83.204 291.778003 83.204 290.021327 83.204 288.783173 82.7251715 288.063503 81.7675 287.343832 80.8098285 286.984003 79.3110102 286.984003 77.271 286.984003 75.2309898 287.343832 73.7151716 288.063503 72.7235 288.783173 71.7318284 290.021327 71.236 291.778003 71.236 293.534678 71.236 294.772832 71.7318284 295.492503 72.7235 296.212173 73.7151716 296.572003 75.2309898 296.572003 77.271 296.572003 79.3110102 296.20934 80.8126618 295.484003 81.776zM308.398003 79.634L306.494003 79.634 306.494003 83 304.148003 83 304.148003 71.44 308.398003 71.44C311.140683 71.44 312.512003 72.77732 312.512003 75.452 312.512003 76.8006734 312.163506 77.8348297 311.466503 78.5545 310.769499 79.2741703 309.746676 79.634 308.398003 79.634zM306.494003 77.628L308.381003 77.628C309.548342 77.628 310.132003 76.9026739 310.132003 75.452 310.132003 74.7379964 309.990337 74.2251682 309.707003 73.9135 309.423668 73.6018318 308.981672 73.446 308.381003 73.446L306.494003 73.446 306.494003 77.628zM319.731003 83L319.731003 71.44 327.211003 71.44 327.211003 73.48 322.077003 73.48 322.077003 76.183 326.191003 76.183 326.191003 78.189 322.077003 78.189 322.077003 80.96 327.211003 80.96 327.211003 83 319.731003 83zM337.065003 79.124L337.065003 83 334.719003 83 334.719003 71.44 339.207003 71.44C341.927017 71.44 343.287003 72.7093206 343.287003 75.248 343.287003 76.7553409 342.720342 77.8659964 341.587003 78.58L343.236003 83 340.669003 83 339.326003 79.124 337.065003 79.124zM339.241003 77.118C339.796339 77.118 340.210002 76.9480017 340.482003 76.608 340.754004 76.2679983 340.890003 75.8203361 340.890003 75.265 340.890003 74.7096639 340.745505 74.2676683 340.456503 73.939 340.167502 73.6103317 339.751006 73.446 339.207003 73.446L337.065003 73.446 337.065003 77.118 339.241003 77.118z"></path></g></svg> 