<?xml version="1.0" encoding="UTF-8"?>
<svg width="301px" height="58px" viewBox="0 0 301 58" version="1.1" xmlns="http://www.w3.org/2000/svg" xmlns:xlink="http://www.w3.org/1999/xlink">
    <!-- Generator: Sketch 58 (84663) - https://sketch.com -->
    <title>logo</title>
    <desc>Created with Sketch.</desc>
    <g id="Pages" stroke="none" stroke-width="1" fill="none" fill-rule="evenodd">
        <g id="Homepage-v2" transform="translate(-13.000000, -165.000000)">
            <g id="Header-section" transform="translate(13.000000, 95.000000)">
                <g id="logo" transform="translate(0.000000, 51.000000)">
                    <g id="Group-2">
                        <g id="Group" transform="translate(0.000000, 20.000000)">
                            <path d="M12,28 L12,28 C12,30.2091569 13.6392376,32 15.6613126,32 L18.3386236,32 C20.3607624,32 22,30.2091569 22,28 C22,25.7908431 20.3607624,24 18.3386236,24 L15.6613126,24 C13.6392376,24 12,25.7908431 12,28" id="Fill-2" fill="#2A0BA0"></path>
                            <path d="M4.44927458,24 L3.55066359,24 C1.589698,24 0,25.7908431 0,28 C0,30.2091569 1.589698,32 3.55066359,32 L4.44927458,32 C6.410302,32 8,30.2091569 8,28 C8,25.7908431 6.410302,24 4.44927458,24" id="Fill-3" fill="#9F9F9F"></path>
                            <path d="M25,28 L25,28 C25,30.2091569 26.7532831,32 28.9161065,32 L39.0839617,32 C41.2467169,32 43,30.2091569 43,28 C43,25.7908431 41.2467169,24 39.0839617,24 L28.9161065,24 C26.7532831,24 25,25.7908431 25,28" id="Fill-4" fill="#FF4547"></path>
                            <path d="M15,39.9999652 L15,40.0000348 C15,42.2091413 13.2757572,44 11.1487574,44 L3.85117552,44 C1.72424278,44 0,42.2091413 0,40.0000348 L0,39.9999652 C0,37.7908587 1.72424278,36 3.85117552,36 L11.1487574,36 C13.2757572,36 15,37.7908587 15,39.9999652" id="Fill-5" fill="#21B2A6"></path>
                            <path d="M21.550698,36 L22.449302,36 C24.4102524,36 26,37.7908587 26,39.9999652 L26,40.0000348 C26,42.2091413 24.4102524,44 22.449302,44 L21.550698,44 C19.5896857,44 18,42.2091413 18,40.0000348 L18,39.9999652 C18,37.7908587 19.5896857,36 21.550698,36" id="Fill-6" fill="#FF4547"></path>
                            <path d="M40.5864587,48 L42.4135413,48 C44.3942759,48 46,49.7906871 46,51.9995821 L46,52.0003483 C46,54.2093129 44.3942759,56 42.4135413,56 L40.5864587,56 C38.6057241,56 37,54.2093129 37,52.0003483 L37,51.9995821 C37,49.7906871 38.6057241,48 40.5864587,48" id="Fill-7" fill="#FF4547"></path>
                            <path d="M22.1666354,12 L3.83329781,12 C1.7162386,12 0,13.7908431 0,16 C0,18.2091569 1.7162386,20 3.83329781,20 L22.1666354,20 C24.2836946,20 26,18.2091569 26,16 C26,13.7908431 24.2836946,12 22.1666354,12" id="Fill-8" fill="#EAECF1"></path>
                            <path d="M10.18845,0 L3.81148357,0 C1.70647195,0 0,1.79074121 0,3.9996169 L0,4.0003831 C0,6.20932845 1.70647195,8 3.81148357,8 L10.18845,8 C12.293528,8 14,6.20932845 14,4.0003831 L14,3.9996169 C14,1.79074121 12.293528,0 10.18845,0" id="Fill-9" fill="#2A0BA0"></path>
                            <path d="M17,3.9996169 L17,4.0003831 C17,6.20932845 18.72617,8 20.8553971,8 L40.14467,8 C42.2738972,8 44,6.20932845 44,4.0003831 L44,3.9996169 C44,1.79074121 42.2738972,0 40.14467,0 L20.8553971,0 C18.72617,0 17,1.79074121 17,3.9996169" id="Fill-10" fill="#EAECF1"></path>
                            <path d="M13.0166395,48 L3.98301371,48 C1.78323813,48 0,49.7906716 0,51.9996169 L0,52.0003831 C0,54.2093284 1.78323813,56 3.98301371,56 L13.0166395,56 C15.2165538,56 17,54.2091195 17,52.0000348 L17,51.9999652 C17,49.7908805 15.2165538,48 13.0166395,48" id="Fill-11" fill="#DDE7E7"></path>
                            <path d="M30.1511864,48 L23.8491487,48 C21.7233564,48 20,49.7908805 20,51.9999652 L20,52.0000348 C20,54.2091195 21.7233564,56 23.8491487,56 L30.1511864,56 C32.2768447,56 34,54.2093284 34,52.0003831 L34,51.9996169 C34,49.7906716 32.2768447,48 30.1511864,48" id="Fill-12" fill="#21B2A6"></path>
                        </g>
                        <text id="steve-furley" font-family="TitilliumWeb-Bold, Titillium Web" font-size="44" font-weight="bold" letter-spacing="0.8516128" fill="#2B343E">
                            <tspan x="57" y="50">Steve Furley </tspan>
                        </text>
                    </g>
                    <text id="FREELANCE-DEVELOPER" font-family="TitilliumWeb-Bold, Titillium Web" font-size="17" font-weight="bold" letter-spacing="3.57" fill="#9F9F9F">
                        <tspan x="57" y="76">FREELANCE DEVELOPER</tspan>
                    </text>
                </g>
            </g>
        </g>
    </g>
</svg>